<?xml version="1.0" encoding="UTF-8" standalone="no"?>
<!-- Created with Inkscape (http://www.inkscape.org/) -->

<svg
   version="1.1"
   id="svg60501"
   width="800"
   height="800"
   viewBox="0 0 800 800"
   sodipodi:docname="e-book-vector-clipart-pdv.svg"
   inkscape:version="1.2 (dc2aedaf03, 2022-05-15)"
   xmlns:inkscape="http://www.inkscape.org/namespaces/inkscape"
   xmlns:sodipodi="http://sodipodi.sourceforge.net/DTD/sodipodi-0.dtd"
   xmlns="http://www.w3.org/2000/svg"
   xmlns:svg="http://www.w3.org/2000/svg">
  <defs
     id="defs60505">
    <clipPath
       clipPathUnits="userSpaceOnUse"
       id="clipPath60517">
      <path
         d="M 0,600 H 600 V 0 H 0 Z"
         id="path60515" />
    </clipPath>
  </defs>
  <sodipodi:namedview
     id="namedview60503"
     pagecolor="#ffffff"
     bordercolor="#000000"
     borderopacity="0.25"
     inkscape:showpageshadow="2"
     inkscape:pageopacity="0.0"
     inkscape:pagecheckerboard="0"
     inkscape:deskcolor="#d1d1d1"
     showgrid="false"
     inkscape:zoom="1.04625"
     inkscape:cx="400"
     inkscape:cy="400.4779"
     inkscape:window-width="1920"
     inkscape:window-height="1017"
     inkscape:window-x="-8"
     inkscape:window-y="-8"
     inkscape:window-maximized="1"
     inkscape:current-layer="g60509">
    <inkscape:page
       x="0"
       y="0"
       id="page60507"
       width="800"
       height="800" />
  </sodipodi:namedview>
  <g
     id="g60509"
     inkscape:groupmode="layer"
     inkscape:label="Page 1"
     transform="matrix(1.3333333,0,0,-1.3333333,0,800)">
    <g
       id="g60511">
      <g
         id="g60513"
         clip-path="url(#clipPath60517)">
        <g
           id="g60519"
           transform="translate(62.8726,525.0483)">
          <path
             d="m 0,0 h 260.123 c 9.435,0 17.154,-7.719 17.154,-17.155 v -360.661 c 0,-9.434 -7.719,-17.152 -17.154,-17.152 H 0 c -9.435,0 -17.153,7.718 -17.153,17.152 V -17.155 C -17.153,-7.719 -9.435,0 0,0"
             style="fill:#1a1a1a;fill-opacity:1;fill-rule:evenodd;stroke:none"
             id="path60521" />
        </g>
        <g
           id="g60523"
           transform="translate(340.1494,499.1167)">
          <path
             d="m 0,0 -261.604,-369.037 h 70.401 L 0,-99.313 Z M -39.528,25.931 -294.43,-333.652 v -18.232 c 0,-7.584 4.99,-14.062 11.851,-16.308 L -6.083,21.853 c -2.993,2.541 -6.86,4.078 -11.07,4.078 z m -105.601,0 h 70.402 L -294.43,-283.995 v 99.312 z"
             style="fill:#303030;fill-opacity:1;fill-rule:evenodd;stroke:none"
             id="path60525" />
        </g>
        <g
           id="g60527"
           transform="translate(536.2549,502.646)">
          <path
             d="m 0,0 c -42.883,16.514 -181.686,16.604 -221.284,0.001 v -350.369 c 41.802,13.056 180.739,14.007 221.284,0 z"
             style="fill:#d7e0cc;fill-opacity:1;fill-rule:evenodd;stroke:none"
             id="path60529" />
        </g>
        <g
           id="g60531"
           transform="translate(73.1079,502.6465)">
          <path
             d="m 0,0 h 239.652 c 1.217,0 2.211,-0.995 2.211,-2.211 v -345.743 c 0,-1.215 -0.994,-2.211 -2.211,-2.211 H 0 c -1.215,0 -2.21,0.996 -2.21,2.211 V -2.211 C -2.21,-0.995 -1.215,0 0,0"
             style="fill:#a7b09d;fill-opacity:1;fill-rule:evenodd;stroke:none"
             id="path60533" />
        </g>
        <g
           id="g60535"
           transform="translate(314.9707,463.5967)">
          <path
             d="m 0,0 -220.545,-311.115 h 70.401 L 0,-99.313 Z m -30.23,39.05 -213.843,-301.661 v -46.294 c 0,-1.132 0.863,-2.072 1.964,-2.196 L 0,30.435 v 6.404 c 0,1.216 -0.994,2.211 -2.209,2.211 z m -105.601,0 h 70.402 l -178.644,-252.006 v 99.314 z"
             style="fill:#c3ccba;fill-opacity:1;fill-rule:evenodd;stroke:none"
             id="path60537" />
        </g>
        <path
           d="M 93.58,416.011 H 292.29 V 408.63 H 93.58 Z m 0,-16.472 h 198.71 v -7.381 H 93.58 Z m 0,-16.472 h 198.71 v -7.38 H 93.58 Z m 0,-16.47 h 198.71 v -7.381 H 93.58 Z m 0,-16.472 h 198.71 v -7.381 c -66.237,0 -132.474,0 -198.71,10e-4 z m 0,-16.471 h 198.71 v -7.381 H 93.58 Z m 0,-16.471 h 198.71 v -7.382 H 93.58 Z m 0,-16.472 h 198.71 v -7.382 H 93.58 Z m 0,-16.472 h 198.71 v -7.382 H 93.58 Z m 0,-16.471 h 198.71 v -7.382 c -66.237,10e-4 -132.474,10e-4 -198.71,10e-4 z m 0,-16.472 h 198.71 v -7.381 H 93.58 Z m 0,-16.472 h 198.71 v -7.381 H 93.58 Z m 0,-16.472 h 198.71 v -7.381 H 93.58 Z m 0,-16.471 h 198.71 v -7.38 H 93.58 Z M 93.578,185.409 H 292.29 v -7.38 H 93.578 Z m 0,263.544 H 292.29 v -7.38 H 93.578 Z m 48.543,32.54 H 243.748 V 468.434 H 142.121 Z M 93.58,432.481 h 198.71 v -7.38 H 93.58 Z"
           style="fill:#7b8272;fill-opacity:1;fill-rule:evenodd;stroke:none"
           id="path60539" />
        <g
           id="g60541"
           transform="translate(276.0063,408.6294)">
          <path
             d="M 0,0 5.23,7.381 H 16.284 V 0 Z m -11.677,-16.472 5.232,7.382 h 22.729 v -7.382 z m -11.677,-16.47 5.233,7.38 h 34.405 v -7.38 z m -11.677,-16.472 5.233,7.382 h 46.082 v -7.382 z m -11.674,-16.471 5.23,7.381 h 57.759 v -7.381 z m -41.131,-157.335 -5.233,-7.38 h -70.402 l 5.233,7.38 z m 11.675,16.472 -5.231,-7.38 h -70.402 l 5.233,7.38 z m 11.676,16.471 -5.231,-7.381 h -70.401 l 5.232,7.381 z m 11.677,16.472 -5.232,-7.381 h -70.4 l 5.231,7.381 z m 11.676,16.472 -5.232,-7.381 h -70.4 l 5.232,7.381 z m 11.676,16.471 -5.23,-7.381 h -70.402 l 5.233,7.381 z m 11.677,16.472 -5.232,-7.382 h -70.4 l 5.232,7.382 z m 11.677,16.472 -5.233,-7.382 h -70.4 l 5.231,7.382 z m 11.677,16.471 -5.233,-7.382 h -70.401 l 5.232,7.382 z m 10.709,15.11 -4.265,-6.02 h -70.402 l 5.232,7.381 h 69.435 z m -196.095,-146.883 -2.617,-3.69 v 3.69 z m 11.675,16.472 -5.232,-7.38 h -9.059 v 7.38 z m 11.676,16.471 -5.231,-7.381 h -20.736 v 7.381 z m 11.677,16.472 -5.232,-7.381 h -32.412 v 5.535 l 1.308,1.846 z m 11.677,16.472 -5.233,-7.381 h -36.336 l 5.233,7.381 z m 11.676,16.471 -5.232,-7.381 h -36.336 l 5.23,7.381 z m 11.676,16.472 -5.232,-7.382 h -36.337 l 5.232,7.382 z m 11.676,16.472 -5.231,-7.382 h -36.338 l 5.234,7.382 z m 11.676,16.471 -5.232,-7.382 h -36.336 l 5.232,7.382 z m 11.676,16.471 -5.23,-7.381 h -36.336 l 5.23,7.381 z m 11.677,16.472 -5.232,-7.381 h -36.336 l 5.232,7.381 z m 11.678,16.472 -5.234,-7.382 h -36.336 l 5.233,7.382 z m 11.675,16.47 -5.232,-7.38 h -36.336 l 5.232,7.38 z m 11.676,16.472 -5.23,-7.382 h -36.338 l 5.232,7.382 z M -16.343,7.381 -21.575,0 h -36.336 l 5.232,7.381 z M 7.01,40.323 1.778,32.943 h -36.336 l 5.231,7.38 z m -188.3,-164.713 -1.137,-1.605 v 1.605 z m 11.675,16.472 -5.231,-7.382 h -7.581 v 7.382 z m 11.676,16.471 -5.231,-7.382 h -19.257 v 7.382 z m 11.677,16.471 -5.232,-7.381 h -30.933 v 7.381 z m 11.678,16.472 -5.234,-7.381 h -42.609 v 7.381 z m 11.675,16.472 -5.232,-7.382 h -54.286 v 7.382 z m 11.676,16.47 -5.23,-7.38 h -65.964 v 6.259 l 0.793,1.121 z m 11.677,16.472 -5.233,-7.382 h -70.4 l 5.231,7.382 z M -87.879,7.381 -93.112,0 h -70.402 l 5.233,7.381 z m 23.352,32.942 -5.232,-7.38 h -70.401 l 5.231,7.38 z m 23.066,32.54 -9.256,-13.058 h -70.402 l 9.258,13.058 z M 16.284,22.974 v -6.502 h -4.608 z m -57.286,0.878 h 36.336 l -5.233,-7.38 h -36.336 z m -105.603,0 h 70.401 l -5.231,-7.38 h -70.402 z"
             style="fill:#8e9683;fill-opacity:1;fill-rule:evenodd;stroke:none"
             id="path60543" />
        </g>
        <g
           id="g60545"
           transform="translate(514.7578,502.646)">
          <path
             d="m 0,0 c -36.606,25.866 -162.047,25.419 -199.787,0.001 v -350.369 c 37.74,25.419 163.181,25.868 199.787,0 z"
             style="fill:#e4edda;fill-opacity:1;fill-rule:evenodd;stroke:none"
             id="path60547" />
        </g>
        <g
           id="g60549"
           transform="translate(500.0117,479.6025)">
          <path
             d="m 0,0 c -15.151,10.706 -49.256,15.99 -83.747,15.99 -34.823,0 -69.671,-5.392 -85.475,-16.035 v 9.332 c 18.54,9.794 52.174,14.751 85.475,14.751 32.873,0 65.725,-4.836 83.747,-14.62 z"
             style="fill:#adb5a3;fill-opacity:1;fill-rule:evenodd;stroke:none"
             id="path60551" />
        </g>
        <g
           id="g60553"
           transform="translate(500.0117,461.3306)">
          <path
             d="m 0,0 c -15.151,10.706 -49.256,15.99 -83.747,15.99 -34.823,0 -69.671,-5.393 -85.475,-16.038 v 9.335 c 18.54,9.793 52.174,14.751 85.475,14.751 32.873,0 65.725,-4.837 83.747,-14.621 z"
             style="fill:#adb5a3;fill-opacity:1;fill-rule:evenodd;stroke:none"
             id="path60555" />
        </g>
        <g
           id="g60557"
           transform="translate(500.0117,443.0571)">
          <path
             d="m 0,0 c -15.151,10.706 -49.256,15.99 -83.747,15.99 -34.823,0 -69.671,-5.394 -85.475,-16.037 v 9.334 c 18.54,9.793 52.174,14.75 85.475,14.75 C -50.874,24.036 -18.022,19.201 0,9.417 Z"
             style="fill:#adb5a3;fill-opacity:1;fill-rule:evenodd;stroke:none"
             id="path60559" />
        </g>
        <g
           id="g60561"
           transform="translate(500.0117,424.7832)">
          <path
             d="m 0,0 c -15.151,10.706 -49.256,15.99 -83.747,15.99 -34.823,0 -69.671,-5.392 -85.475,-16.037 v 9.334 c 18.54,9.794 52.174,14.751 85.475,14.751 32.873,0 65.725,-4.837 83.747,-14.62 z"
             style="fill:#adb5a3;fill-opacity:1;fill-rule:evenodd;stroke:none"
             id="path60563" />
        </g>
        <g
           id="g60565"
           transform="translate(500.0117,406.5112)">
          <path
             d="m 0,0 c -15.151,10.706 -49.256,15.99 -83.747,15.99 -34.823,0 -69.671,-5.394 -85.475,-16.038 v 9.335 c 18.54,9.793 52.174,14.75 85.475,14.75 32.873,0 65.725,-4.836 83.747,-14.621 z"
             style="fill:#adb5a3;fill-opacity:1;fill-rule:evenodd;stroke:none"
             id="path60567" />
        </g>
        <g
           id="g60569"
           transform="translate(500.0117,388.2363)">
          <path
             d="m 0,0 c -15.151,10.706 -49.256,15.99 -83.747,15.99 -34.823,0 -69.671,-5.392 -85.475,-16.035 v 9.332 c 18.54,9.794 52.174,14.751 85.475,14.751 32.873,0 65.725,-4.836 83.747,-14.62 z"
             style="fill:#adb5a3;fill-opacity:1;fill-rule:evenodd;stroke:none"
             id="path60571" />
        </g>
        <g
           id="g60573"
           transform="translate(500.0117,369.9644)">
          <path
             d="m 0,0 c -15.151,10.706 -49.256,15.99 -83.747,15.99 -34.823,0 -69.671,-5.392 -85.475,-16.037 v 9.334 c 18.54,9.793 52.174,14.751 85.475,14.751 32.873,0 65.725,-4.837 83.747,-14.621 z"
             style="fill:#adb5a3;fill-opacity:1;fill-rule:evenodd;stroke:none"
             id="path60575" />
        </g>
        <g
           id="g60577"
           transform="translate(500.0117,351.6909)">
          <path
             d="m 0,0 c -15.151,10.707 -49.256,15.992 -83.747,15.992 -34.823,0 -69.671,-5.394 -85.475,-16.039 v 9.336 c 18.54,9.791 52.174,14.749 85.475,14.749 32.873,0 65.725,-4.836 83.747,-14.621 z"
             style="fill:#adb5a3;fill-opacity:1;fill-rule:evenodd;stroke:none"
             id="path60579" />
        </g>
        <g
           id="g60581"
           transform="translate(500.0117,333.4175)">
          <path
             d="m 0,0 c -15.151,10.707 -49.256,15.992 -83.747,15.992 -34.823,0 -69.671,-5.394 -85.475,-16.037 v 9.334 c 18.54,9.792 52.174,14.749 85.475,14.749 32.873,0 65.725,-4.836 83.747,-14.62 z"
             style="fill:#adb5a3;fill-opacity:1;fill-rule:evenodd;stroke:none"
             id="path60583" />
        </g>
        <g
           id="g60585"
           transform="translate(500.0117,315.1455)">
          <path
             d="m 0,0 c -15.151,10.706 -49.256,15.99 -83.747,15.99 -34.823,0 -69.671,-5.394 -85.475,-16.039 v 9.336 c 18.54,9.793 52.174,14.75 85.475,14.75 32.873,0 65.725,-4.836 83.747,-14.622 z"
             style="fill:#adb5a3;fill-opacity:1;fill-rule:evenodd;stroke:none"
             id="path60587" />
        </g>
        <g
           id="g60589"
           transform="translate(500.0117,296.8721)">
          <path
             d="m 0,0 c -15.151,10.707 -49.256,15.991 -83.747,15.991 -34.823,0 -69.671,-5.393 -85.475,-16.038 v 9.334 c 18.54,9.792 52.174,14.749 85.475,14.749 32.873,0 65.725,-4.836 83.747,-14.62 z"
             style="fill:#adb5a3;fill-opacity:1;fill-rule:evenodd;stroke:none"
             id="path60591" />
        </g>
        <g
           id="g60593"
           transform="translate(500.0117,278.5986)">
          <path
             d="m 0,0 c -15.151,10.705 -49.256,15.99 -83.747,15.99 -34.823,0 -69.671,-5.392 -85.475,-16.037 v 9.334 c 18.54,9.794 52.174,14.751 85.475,14.751 32.873,0 65.725,-4.838 83.747,-14.62 z"
             style="fill:#adb5a3;fill-opacity:1;fill-rule:evenodd;stroke:none"
             id="path60595" />
        </g>
        <g
           id="g60597"
           transform="translate(500.0117,260.3252)">
          <path
             d="m 0,0 c -15.151,10.707 -49.256,15.991 -83.747,15.991 -34.823,0 -69.671,-5.393 -85.475,-16.038 v 9.334 c 18.54,9.792 52.174,14.751 85.475,14.751 32.873,0 65.725,-4.836 83.747,-14.622 z"
             style="fill:#adb5a3;fill-opacity:1;fill-rule:evenodd;stroke:none"
             id="path60599" />
        </g>
        <g
           id="g60601"
           transform="translate(500.0117,242.0518)">
          <path
             d="m 0,0 c -15.151,10.707 -49.256,15.991 -83.747,15.991 -34.823,0 -69.671,-5.394 -85.475,-16.037 v 9.334 c 18.54,9.793 52.174,14.75 85.475,14.75 32.873,0 65.725,-4.836 83.747,-14.62 z"
             style="fill:#adb5a3;fill-opacity:1;fill-rule:evenodd;stroke:none"
             id="path60603" />
        </g>
        <g
           id="g60605"
           transform="translate(500.0117,223.7793)">
          <path
             d="m 0,0 c -15.151,10.706 -49.256,15.99 -83.747,15.99 -34.823,0 -69.671,-5.392 -85.475,-16.037 v 9.334 c 18.54,9.793 52.174,14.751 85.475,14.751 32.873,0 65.725,-4.837 83.747,-14.621 z"
             style="fill:#adb5a3;fill-opacity:1;fill-rule:evenodd;stroke:none"
             id="path60607" />
        </g>
        <g
           id="g60609"
           transform="translate(500.0117,205.5059)">
          <path
             d="m 0,0 c -15.151,10.707 -49.256,15.991 -83.747,15.991 -34.823,0 -69.671,-5.393 -85.475,-16.038 v 9.334 c 18.54,9.793 52.174,14.75 85.475,14.75 32.873,0 65.725,-4.836 83.747,-14.62 z"
             style="fill:#adb5a3;fill-opacity:1;fill-rule:evenodd;stroke:none"
             id="path60611" />
        </g>
        <g
           id="g60613"
           transform="translate(500.0117,187.2324)">
          <path
             d="m 0,0 c -15.151,10.706 -49.256,15.99 -83.747,15.99 -34.823,0 -69.671,-5.392 -85.475,-16.037 v 9.334 c 18.54,9.794 52.174,14.751 85.475,14.751 32.873,0 65.725,-4.837 83.747,-14.621 z"
             style="fill:#adb5a3;fill-opacity:1;fill-rule:evenodd;stroke:none"
             id="path60615" />
        </g>
        <g
           id="g60617"
           transform="translate(292.5439,502.6465)">
          <path
             d="M 0,0 H 22.427 V -419.789 L 11.071,-393.53 0,-419.789 Z"
             style="fill:#336699;fill-opacity:1;fill-rule:evenodd;stroke:none"
             id="path60619" />
        </g>
      </g>
    </g>
  </g>
</svg>
